<?xml version="1.0" encoding="utf-8"?>
<!-- Generator: Adobe Illustrator 16.0.0, SVG Export Plug-In . SVG Version: 6.00 Build 0)  -->
<!DOCTYPE svg PUBLIC "-//W3C//DTD SVG 1.1//EN" "http://www.w3.org/Graphics/SVG/1.1/DTD/svg11.dtd">
<svg version="1.1" id="Layer_1" xmlns="http://www.w3.org/2000/svg" xmlns:xlink="http://www.w3.org/1999/xlink" x="0px" y="0px"
	 width="164.099px" height="145.488px" viewBox="0 0 164.099 145.488" enable-background="new 0 0 164.099 145.488"
	 xml:space="preserve">
<g id="XMLID_1_">
	<g>
		<path fill="#7FACF7" d="M162.542,46.408c0.402,3.581,1.094,7.311,0.759,10.912c-0.38,4.297-0.224,8.803-1.462,13.011
			c-0.514,1.701-0.592,3.481-1.049,5.212c-0.447,1.721-1.273,3.412-1.574,5.163c-0.446,2.646-1.987,5.669-3.047,8.186
			c-1.295,3.104-3.059,6.058-4.733,9.012c-12.302,21.605-34.762,37.649-60.515,44.94c-2.702,0.766-5.448,1.402-8.238,1.86
			c-2.757,0.447-6.396-1.174-9.064-1.811c-6.821-1.621-13.496-4.357-19.714-7.331c-12.458-5.979-23.442-14.642-32.038-24.639
			C14.34,102.18,8.792,92.163,5.176,81.659C3.133,75.741,2.608,69.673,1,63.695c0-5.351-0.792-10.762,0.234-16.104
			c0.759-3.969,1.15-8.086,2.355-11.956c0.536-1.76,1.072-3.511,1.63-5.252c3.985,0.02,7.97,0.03,11.967,0.03
			c1.92,0,3.84,0,5.76-0.01c-0.011,0.03-0.034,0.08-0.056,0.109c0.067-0.129,8.126,0.179,8.64,0.209
			c6.955,0.07,13.909,0.089,20.853,0.089c6.955,0,13.898-0.02,20.853-0.089c0,0.01,8.428,0.249,8.651-0.209
			c0.022-0.04,0.033-0.08,0.056-0.119c0.145,0,0.268,0,0.413,0c0.29,0,0.581,0,0.871,0c3.193,0.02,6.385,0.02,9.567,0.02
			c0.882,0,1.775-0.01,2.657-0.01c1.752,0.08,4.342,0.169,5.805-0.01c0.011,0,0.022,0,0.034,0c4.119-0.01,8.227-0.03,12.346-0.07
			c0,0.01,5.314,0.179,7.613,0.01c0.011,0,0.022,0,0.034,0c1.004,0,1.741-0.01,1.853-0.01c6.307,0.06,12.614,0.089,18.921,0.089
			c3.65,0.318,7.379,0.388,10.962-0.01c2.009,0,4.019,0,6.028-0.01C160.745,35.635,161.939,41.037,162.542,46.408z"/>
	</g>
	<g>
		<path fill="none" stroke="#000000" stroke-width="2" d="M159.07,31.199c-0.469,0.03-1.585,0.03-2.076,0.05
			c-0.547,0.01-1.105,0-1.652,0c-1.194,0.01-2.4,0-3.595,0c-2.311,0-4.61,0-6.91,0c-4.778,0-9.544,0-14.311,0
			c-9.399,0-18.788,0-28.176,0c-18.899,0-37.787,0-56.687,0c-6.753,0-13.519,0-20.283,0c-3.327,0-6.665,0-9.991,0
			c-1.663,0-3.315,0.01-4.979,0c-0.826,0-1.664,0-2.489,0c-0.782,0.01-2.11,0.089-2.869,0.03"/>
		<path fill="none" stroke="#000000" stroke-width="2" d="M159.048,30.394c1.697,5.242,2.891,10.643,3.494,16.014
			c0.402,3.581,1.094,7.311,0.759,10.912c-0.38,4.297-0.224,8.803-1.462,13.011c-0.514,1.701-0.592,3.481-1.049,5.212
			c-0.447,1.721-1.273,3.412-1.574,5.163c-0.446,2.646-1.987,5.669-3.047,8.186c-1.295,3.104-3.059,6.058-4.733,9.012
			c-12.302,21.605-34.762,37.649-60.515,44.94c-2.702,0.766-5.448,1.402-8.238,1.86c-2.757,0.447-6.396-1.174-9.064-1.811
			c-6.821-1.621-13.496-4.357-19.714-7.331c-12.458-5.979-23.442-14.642-32.038-24.639C14.34,102.18,8.792,92.163,5.176,81.659
			C3.133,75.741,2.608,69.673,1,63.695"/>
		<path fill="none" stroke="#000000" stroke-width="2" d="M1,63.695c0-5.351-0.792-10.762,0.234-16.104
			c0.759-3.969,1.15-8.086,2.355-11.956c0.536-1.76,1.072-3.511,1.63-5.252"/>
		<path fill="none" stroke="#000000" stroke-width="2" d="M142.058,30.413c3.65,0.318,7.379,0.388,10.962-0.01"/>
		<path fill="none" stroke="#000000" stroke-width="2" d="M6.336,30.394c0.034,0,0.067,0,0.112,0"/>
		<path fill="none" stroke="#000000" stroke-width="2" d="M121.283,30.333c1.004,0,1.741-0.01,1.853-0.01
			c6.307,0.06,12.614,0.089,18.921,0.089"/>
		<path fill="none" stroke="#000000" stroke-width="2" d="M153.02,30.403c2.009,0,4.019,0,6.028-0.01"/>
		<path fill="none" stroke="#000000" stroke-width="2" d="M101.29,30.394c4.119-0.01,8.227-0.03,12.346-0.07
			c0,0.01,5.314,0.179,7.613,0.01c0.011,0,0.022,0,0.034,0"/>
		<path fill="none" stroke="#000000" stroke-width="2" d="M83.228,30.394c3.193,0.02,6.385,0.02,9.567,0.02
			c0.882,0,1.775-0.01,2.657-0.01"/>
		<path fill="none" stroke="#000000" stroke-width="2" d="M95.452,30.403c1.752,0.08,4.342,0.169,5.805-0.01
			c0.011,0,0.022,0,0.034,0"/>
		<path fill="none" stroke="#000000" stroke-width="2" d="M81.944,30.394c0.145,0,0.268,0,0.413,0c0.29,0,0.581,0,0.871,0"/>
		<path fill="none" stroke="#000000" stroke-width="2" d="M22.947,30.403c-0.011,0.03-0.034,0.08-0.056,0.109
			c0.067-0.129,8.126,0.179,8.64,0.209c6.955,0.07,13.909,0.089,20.853,0.089c6.955,0,13.898-0.02,20.853-0.089
			c0,0.01,8.428,0.249,8.651-0.209c0.022-0.04,0.033-0.08,0.056-0.119"/>
		<path fill="none" stroke="#000000" stroke-width="2" d="M5.22,30.383c3.985,0.02,7.97,0.03,11.967,0.03c1.92,0,3.84,0,5.76-0.01"
			/>
	</g>
</g>
<rect x="23.685" y="39.176" fill="none" width="121.705" height="87.537"/>
<text transform="matrix(1 0 0 1 27.6675 101.4756)" fill="#FFFFFF" font-family="'PTSans-Regular'" font-size="89">Ike</text>
<g id="XMLID_2_">
	<g>
		<path fill="#979AA5" d="M52.746,31.93c-5.135-0.309-20.261-0.12-25.787-0.06c-0.044,0-0.078,0-0.123,0
			c-8.908,0.03-17.448,0.099-22.337,0.179c1.116-3.561,2.266-7.102,3.896-10.554c2.668-5.649,5.749-10.951,9.544-16.084
			c0.77-1.054,1.585-2.079,2.456-3.063c0.312-0.358,0.971-1.442,1.451-1.611c0.502-0.169,2.288,0.626,2.869,0.706
			c0.759,0.159,1.529,0.298,2.289,0.458c2.624,0.518,5.258,1.154,7.915,1.542c8.562,1.273,17.303,1.363,25.932,0.756
			c6.709-0.478,13.139-1.86,19.691-3.153c1.976-0.388,3.472,0.05,5.493,0.408c3.494,0.617,6.988,1.243,10.493,1.85
			c7.021,1.223,14.222,1.154,21.344,1.144c6.24-0.01,12.425-1.492,18.52-2.486c1.127-0.179,2.222-0.448,3.327-0.696
			c0.714-0.159,1.418-0.318,2.132-0.478c0.48-0.109,1.462,1.602,1.741,1.969c3.896,5.013,7.457,10.096,10.304,15.667
			c2.154,4.217,3.963,8.644,5.347,13.169c-2.076-0.02-4.376-0.02-4.901-0.01c-0.033-0.01-0.067,0-0.089,0c-0.022,0-0.022,0-0.022,0
			c-0.089,0-0.19,0-0.279,0c-6.854-0.07-13.708-0.09-20.562-0.09c-0.804,0-1.596,0-2.4,0s-1.596,0-2.4,0
			c-6.944,0-13.887,0.02-20.831,0.09c0.067,0-8.674,0.149-8.674,0.199c0.011,0.04,0.011,0.08,0.022,0.12
			c-10.639-0.14-30.911-0.04-42.755,0.099c-0.044,0-0.078,0-0.123,0c-0.96-0.03-2.121-0.05-3.438-0.069
			C52.779,31.93,52.757,31.93,52.746,31.93z"/>
	</g>
	<g>
		<path fill="none" stroke="#000000" stroke-width="2" d="M158.874,31.204c-0.469,0.03-1.585,0.03-2.076,0.05
			c-0.547,0.01-1.105,0-1.652,0c-1.195,0.01-2.4,0-3.595,0c-2.311,0-4.61,0-6.91,0c-4.778,0-9.544,0-14.311,0
			c-9.399,0-18.788,0-28.176,0c-18.899,0-37.787,0-56.686,0c-6.754,0-13.519,0-20.284,0c-3.326,0-6.664,0-9.991,0
			c-1.664,0-3.315,0.01-4.979,0c-0.826,0-1.663,0-2.489,0c-0.781,0.01-2.11,0.089-2.869,0.03"/>
		<path fill="none" stroke="#000000" stroke-width="2" d="M4.499,32.049c1.116-3.561,2.266-7.102,3.896-10.554
			c2.668-5.649,5.749-10.951,9.544-16.084c0.77-1.054,1.585-2.079,2.456-3.063c0.312-0.358,0.971-1.442,1.451-1.611
			c0.502-0.169,2.288,0.626,2.869,0.706c0.759,0.159,1.529,0.298,2.289,0.458c2.624,0.518,5.258,1.154,7.915,1.542
			c8.562,1.273,17.303,1.363,25.932,0.756c6.709-0.478,13.139-1.86,19.691-3.153c1.976-0.388,3.472,0.05,5.493,0.408
			c3.494,0.617,6.988,1.243,10.493,1.85c7.021,1.223,14.222,1.154,21.344,1.144c6.24-0.01,12.425-1.492,18.52-2.486
			c1.127-0.179,2.222-0.448,3.327-0.696c0.714-0.159,1.418-0.318,2.132-0.478c0.48-0.109,1.462,1.602,1.741,1.969
			c3.896,5.013,7.457,10.096,10.304,15.667c2.154,4.217,3.963,8.644,5.347,13.169"/>
		<path fill="none" stroke="#000000" stroke-width="2" d="M130.988,31.492c-0.804,0-1.596,0-2.4,0c-6.944,0-13.887,0.02-20.831,0.09
			c0.067,0-8.674,0.149-8.674,0.199c0.011,0.04,0.011,0.08,0.022,0.12"/>
		<path fill="none" stroke="#000000" stroke-width="2" d="M159.242,31.591c-2.076-0.02-4.376-0.02-4.901-0.01
			c-0.033-0.01-0.067,0-0.089,0c-0.022,0-0.022,0-0.022,0c-0.089,0-0.19,0-0.279,0c-6.854-0.07-13.708-0.09-20.562-0.09
			c-0.804,0-1.596,0-2.4,0"/>
		<path fill="none" stroke="#000000" stroke-width="2" d="M99.106,31.9c-10.639-0.14-30.911-0.04-42.755,0.099"/>
		<path fill="none" stroke="#000000" stroke-width="2" d="M26.836,31.87c-8.908,0.03-17.448,0.099-22.337,0.179"/>
		<path fill="none" stroke="#000000" stroke-width="2" d="M56.352,31.999c-0.044,0-0.078,0-0.123,0
			c-0.96-0.03-2.121-0.05-3.438-0.069"/>
		<path fill="none" stroke="#000000" stroke-width="2" d="M52.791,31.93c-0.011,0-0.033,0-0.044,0
			c-5.135-0.309-20.261-0.12-25.787-0.06c-0.044,0-0.078,0-0.123,0"/>
	</g>
</g>
</svg>
