<?xml version="1.0" encoding="utf-8"?>
<!-- Generator: Adobe Illustrator 16.0.0, SVG Export Plug-In . SVG Version: 6.00 Build 0)  -->
<!DOCTYPE svg PUBLIC "-//W3C//DTD SVG 1.1//EN" "http://www.w3.org/Graphics/SVG/1.1/DTD/svg11.dtd">
<svg version="1.1" id="Layer_1" xmlns="http://www.w3.org/2000/svg" xmlns:xlink="http://www.w3.org/1999/xlink" x="0px" y="0px"
	 width="165.148px" height="143.072px" viewBox="0 0 165.148 143.072" enable-background="new 0 0 165.148 143.072"
	 xml:space="preserve">
<g id="XMLID_1_">
	<g>
	</g>
	<g>
		<path fill="none" stroke="#000000" stroke-width="1.4173" stroke-linecap="round" d="M160.092,30.688
			c-0.472,0.029-1.595,0.029-2.089,0.049c-0.551,0.01-1.112,0-1.663,0c-1.202,0.01-2.416,0-3.618,0c-2.326,0-4.64,0-6.955,0
			c-4.809,0-9.606,0-14.403,0c-9.46,0-18.909,0-28.357,0c-19.021,0-38.031,0-57.052,0c-6.797,0-13.606,0-20.414,0
			c-3.348,0-6.708,0-10.056,0c-1.674,0-3.337,0.01-5.011,0c-0.832,0-1.674,0-2.505,0c-0.787,0.01-2.124,0.088-2.888,0.029"/>
		<path fill="none" stroke="#000000" stroke-width="1.4173" stroke-linecap="round" stroke-linejoin="round" d="M1.002,62.64
			c0-5.262-0.798-10.582,0.236-15.834c0.764-3.902,1.157-7.951,2.371-11.755c0.46-1.447,0.899-2.885,1.359-4.313
			c1.045-3.247,2.157-6.455,3.674-9.594c2.686-5.555,5.786-10.768,9.606-15.814c0.775-1.037,1.596-2.044,2.472-3.012
			c0.314-0.352,0.977-1.418,1.46-1.584c0.505-0.166,2.303,0.616,2.887,0.695c0.764,0.156,1.54,0.293,2.303,0.45
			c2.64,0.508,5.292,1.134,7.966,1.516c8.617,1.252,17.415,1.34,26.099,0.744c6.752-0.47,13.224-1.829,19.819-3.101
			c1.989-0.381,3.494,0.049,5.528,0.401c3.517,0.606,7.033,1.222,10.561,1.819c7.067,1.203,14.313,1.134,21.481,1.125
			c6.281-0.01,12.505-1.467,18.639-2.445c1.135-0.176,2.236-0.44,3.348-0.685c0.719-0.156,1.427-0.313,2.146-0.469
			c0.483-0.108,1.472,1.574,1.752,1.936c3.921,4.929,7.505,9.927,10.37,15.404c2.101,4.01,3.854,8.215,5.236,12.519
			c1.595,4.919,2.696,9.966,3.269,15.002c0.405,3.521,1.101,7.188,0.764,10.729c-0.382,4.225-0.225,8.655-1.472,12.792
			c-0.517,1.672-0.596,3.423-1.056,5.125c-0.449,1.692-1.281,3.354-1.584,5.076c-0.45,2.602-2,5.575-3.067,8.049
			c-1.303,3.051-3.079,5.956-4.764,8.86c-12.381,21.242-34.986,37.018-60.906,44.186c-2.719,0.753-5.483,1.379-8.292,1.829
			c-2.775,0.44-6.438-1.154-9.123-1.78c-6.865-1.594-13.583-4.284-19.841-7.208c-12.539-5.878-23.594-14.396-32.245-24.225
			C14.428,100.479,8.844,90.63,5.204,80.302C3.148,74.483,2.62,68.518,1.002,62.64"/>
	</g>
</g>
<rect x="23.005" y="39.175" fill="none" width="121.705" height="87.537"/>
<text transform="matrix(1 0 0 1 46.8984 106.375)" fill="#88AAD9" font-family="'PTSans-Regular'" font-size="96">Ik</text>
</svg>
